# xmcd CD database file
#
# Track frame offsets:
#	150
#	14181
#	27605
#	42320
#	53564
#	71624
#	85292
#	111466
#	127378
#	143257
#	165353
#	176001
#	190510
#	209609
#	221847
#	238450
#	251838
#
# Disc length: 3608 seconds
#
# Revision: 2
# Processed by: cddbd v1.5.2PL0 Copyright (c) Steve Scherf et al.
# Submitted via: CDex 1.51
#
DISCID=0a0e1611
DTITLE=Frank Muschalle Trio - Mellow Blues
DYEAR=2005
DGENRE=Jazz
TTITLE0=Swingin' the Boogie
TTITLE1=You' re just my kind
TTITLE2=Blue Balance
TTITLE3=Treetop jump
TTITLE4=Just for you
TTITLE5=TipToe
TTITLE6=Blues for the night owls
TTITLE7=Black fantasy
TTITLE8=Down in the alley
TTITLE9=Robins' nest
TTITLE10=Jesse
TTITLE11=Mellow blues
TTITLE12=Morning glories
TTITLE13=Walkin' this boogie
TTITLE14=Island jive
TTITLE15=Nagasaki
TTITLE16=Creole love call
EXTD=YEAR: 2005
EXTT0=
EXTT1=
EXTT2=
EXTT3=
EXTT4=
EXTT5=
EXTT6=
EXTT7=
EXTT8=
EXTT9=
EXTT10=
EXTT11=
EXTT12=
EXTT13=
EXTT14=
EXTT15=
EXTT16=
PLAYORDER=
